<?xml version="1.0" encoding="UTF-8" standalone="no"?>
<!DOCTYPE svg PUBLIC "-//W3C//DTD SVG 1.1//EN"
 "http://www.w3.org/Graphics/SVG/1.1/DTD/svg11.dtd">
<!-- Generated by graphviz version 2.47.3 (20210619.1520)
 -->
<!-- Title: dependencies Pages: 1 -->
<svg width="170pt" height="174pt"
 viewBox="0.00 0.00 170.00 173.80" xmlns="http://www.w3.org/2000/svg" xmlns:xlink="http://www.w3.org/1999/xlink">
<g id="graph0" class="graph" transform="scale(1 1) rotate(0) translate(4 169.8)">
<title>dependencies</title>
<polygon fill="white" stroke="transparent" points="-4,4 -4,-169.8 166,-169.8 166,4 -4,4"/>
<text text-anchor="middle" x="81" y="-8.2" font-family="sans-serif" font-size="14.00">dependencies</text>
<g id="clust1" class="cluster">
<title>cluster_JobsModule</title>
<polygon fill="none" stroke="black" stroke-dasharray="1,5" points="8,-32.8 8,-157.8 154,-157.8 154,-32.8 8,-32.8"/>
</g>
<g id="clust6" class="cluster">
<title>cluster_JobsModule_providers</title>
<polygon fill="none" stroke="black" points="16,-40.8 16,-92.8 146,-92.8 146,-40.8 16,-40.8"/>
</g>
<!-- JobsService -->
<g id="node1" class="node">
<title>JobsService</title>
<ellipse fill="#fdb462" stroke="black" cx="81" cy="-66.8" rx="57.32" ry="18"/>
<text text-anchor="middle" x="81" y="-62.6" font-family="Times,serif" font-size="14.00">JobsService</text>
</g>
<!-- JobsModule -->
<g id="node2" class="node">
<title>JobsModule</title>
<polygon fill="#8dd3c7" stroke="black" points="123.44,-149.8 120.44,-153.8 99.44,-153.8 96.44,-149.8 38.56,-149.8 38.56,-113.8 123.44,-113.8 123.44,-149.8"/>
<text text-anchor="middle" x="81" y="-127.6" font-family="Times,serif" font-size="14.00">JobsModule</text>
</g>
<!-- JobsService&#45;&gt;JobsModule -->
<g id="edge1" class="edge">
<title>JobsService&#45;&gt;JobsModule</title>
<path fill="none" stroke="black" d="M81,-84.91C81,-84.91 81,-103.79 81,-103.79"/>
<polygon fill="black" stroke="black" points="77.5,-103.79 81,-113.79 84.5,-103.79 77.5,-103.79"/>
</g>
</g>
</svg>
