<?xml version="1.0" encoding="UTF-8" standalone="no"?>
<!DOCTYPE svg PUBLIC "-//W3C//DTD SVG 1.1//EN"
 "http://www.w3.org/Graphics/SVG/1.1/DTD/svg11.dtd">
<!-- Generated by graphviz version 2.47.3 (20210619.1520)
 -->
<!-- Title: dependencies Pages: 1 -->
<svg width="278pt" height="174pt"
 viewBox="0.00 0.00 278.00 173.80" xmlns="http://www.w3.org/2000/svg" xmlns:xlink="http://www.w3.org/1999/xlink">
<g id="graph0" class="graph" transform="scale(1 1) rotate(0) translate(4 169.8)">
<title>dependencies</title>
<polygon fill="white" stroke="transparent" points="-4,4 -4,-169.8 274,-169.8 274,4 -4,4"/>
<text text-anchor="middle" x="135" y="-8.2" font-family="sans-serif" font-size="14.00">dependencies</text>
<g id="clust1" class="cluster">
<title>cluster_AppModule</title>
<polygon fill="none" stroke="black" stroke-dasharray="1,5" points="8,-32.8 8,-157.8 262,-157.8 262,-32.8 8,-32.8"/>
</g>
<g id="clust3" class="cluster">
<title>cluster_AppModule_imports</title>
<polygon fill="none" stroke="black" points="154,-40.8 154,-92.8 254,-92.8 254,-40.8 154,-40.8"/>
</g>
<g id="clust6" class="cluster">
<title>cluster_AppModule_providers</title>
<polygon fill="none" stroke="black" points="16,-40.8 16,-92.8 146,-92.8 146,-40.8 16,-40.8"/>
</g>
<!-- JobsModule -->
<g id="node1" class="node">
<title>JobsModule</title>
<polygon fill="#8dd3c7" stroke="black" points="246.44,-84.8 243.44,-88.8 222.44,-88.8 219.44,-84.8 161.56,-84.8 161.56,-48.8 246.44,-48.8 246.44,-84.8"/>
<text text-anchor="middle" x="204" y="-62.6" font-family="Times,serif" font-size="14.00">JobsModule</text>
</g>
<!-- AppModule -->
<g id="node2" class="node">
<title>AppModule</title>
<polygon fill="#8dd3c7" stroke="black" points="183.66,-149.8 180.66,-153.8 159.66,-153.8 156.66,-149.8 100.34,-149.8 100.34,-113.8 183.66,-113.8 183.66,-149.8"/>
<text text-anchor="middle" x="142" y="-127.6" font-family="Times,serif" font-size="14.00">AppModule</text>
</g>
<!-- JobsModule&#45;&gt;AppModule -->
<g id="edge1" class="edge">
<title>JobsModule&#45;&gt;AppModule</title>
<path fill="none" stroke="black" d="M172.8,-84.91C172.8,-84.91 172.8,-103.79 172.8,-103.79"/>
<polygon fill="black" stroke="black" points="169.3,-103.79 172.8,-113.79 176.3,-103.79 169.3,-103.79"/>
</g>
<!-- AppService -->
<g id="node3" class="node">
<title>AppService</title>
<ellipse fill="#fdb462" stroke="black" cx="81" cy="-66.8" rx="56.74" ry="18"/>
<text text-anchor="middle" x="81" y="-62.6" font-family="Times,serif" font-size="14.00">AppService</text>
</g>
<!-- AppService&#45;&gt;AppModule -->
<g id="edge2" class="edge">
<title>AppService&#45;&gt;AppModule</title>
<path fill="none" stroke="black" d="M118.9,-80.27C118.9,-80.27 118.9,-103.66 118.9,-103.66"/>
<polygon fill="black" stroke="black" points="115.4,-103.66 118.9,-113.66 122.4,-103.66 115.4,-103.66"/>
</g>
</g>
</svg>
