<?xml version="1.0" encoding="UTF-8" standalone="no"?>
<!DOCTYPE svg PUBLIC "-//W3C//DTD SVG 1.1//EN"
 "http://www.w3.org/Graphics/SVG/1.1/DTD/svg11.dtd">
<!-- Generated by graphviz version 2.47.3 (20210619.1520)
 -->
<!-- Title: dependencies Pages: 1 -->
<svg width="293pt" height="250pt"
 viewBox="0.00 0.00 293.00 249.80" xmlns="http://www.w3.org/2000/svg" xmlns:xlink="http://www.w3.org/1999/xlink">
<g id="graph0" class="graph" transform="scale(1 1) rotate(0) translate(4 245.8)">
<title>dependencies</title>
<polygon fill="white" stroke="transparent" points="-4,4 -4,-245.8 289,-245.8 289,4 -4,4"/>
<text text-anchor="middle" x="142.5" y="-8.2" font-family="sans-serif" font-size="14.00">dependencies</text>
<g id="clust1" class="cluster">
<title>cluster_AppModule</title>
<polygon fill="none" stroke="black" stroke-dasharray="1,5" points="8,-108.8 8,-233.8 262,-233.8 262,-108.8 8,-108.8"/>
</g>
<g id="clust3" class="cluster">
<title>cluster_AppModule_imports</title>
<polygon fill="none" stroke="black" points="154,-116.8 154,-168.8 254,-168.8 254,-116.8 154,-116.8"/>
</g>
<g id="clust6" class="cluster">
<title>cluster_AppModule_providers</title>
<polygon fill="none" stroke="black" points="16,-116.8 16,-168.8 146,-168.8 146,-116.8 16,-116.8"/>
</g>
<g id="clust7" class="cluster">
<title>cluster_JobsModule</title>
<polygon fill="none" stroke="black" stroke-dasharray="1,5" points="131,-32.8 131,-100.8 277,-100.8 277,-32.8 131,-32.8"/>
</g>
<g id="clust12" class="cluster">
<title>cluster_JobsModule_providers</title>
<polygon fill="none" stroke="black" points="139,-40.8 139,-92.8 269,-92.8 269,-40.8 139,-40.8"/>
</g>
<!-- JobsModule -->
<g id="node1" class="node">
<title>JobsModule</title>
<polygon fill="#8dd3c7" stroke="black" points="246.44,-160.8 243.44,-164.8 222.44,-164.8 219.44,-160.8 161.56,-160.8 161.56,-124.8 246.44,-124.8 246.44,-160.8"/>
<text text-anchor="middle" x="204" y="-138.6" font-family="Times,serif" font-size="14.00">JobsModule</text>
</g>
<!-- AppModule -->
<g id="node2" class="node">
<title>AppModule</title>
<polygon fill="#8dd3c7" stroke="black" points="183.66,-225.8 180.66,-229.8 159.66,-229.8 156.66,-225.8 100.34,-225.8 100.34,-189.8 183.66,-189.8 183.66,-225.8"/>
<text text-anchor="middle" x="142" y="-203.6" font-family="Times,serif" font-size="14.00">AppModule</text>
</g>
<!-- JobsModule&#45;&gt;AppModule -->
<g id="edge1" class="edge">
<title>JobsModule&#45;&gt;AppModule</title>
<path fill="none" stroke="black" d="M172.8,-160.91C172.8,-160.91 172.8,-179.79 172.8,-179.79"/>
<polygon fill="black" stroke="black" points="169.3,-179.79 172.8,-189.79 176.3,-179.79 169.3,-179.79"/>
</g>
<!-- AppService -->
<g id="node3" class="node">
<title>AppService</title>
<ellipse fill="#fdb462" stroke="black" cx="81" cy="-142.8" rx="56.74" ry="18"/>
<text text-anchor="middle" x="81" y="-138.6" font-family="Times,serif" font-size="14.00">AppService</text>
</g>
<!-- AppService&#45;&gt;AppModule -->
<g id="edge2" class="edge">
<title>AppService&#45;&gt;AppModule</title>
<path fill="none" stroke="black" d="M118.9,-156.27C118.9,-156.27 118.9,-179.66 118.9,-179.66"/>
<polygon fill="black" stroke="black" points="115.4,-179.66 118.9,-189.66 122.4,-179.66 115.4,-179.66"/>
</g>
<!-- JobsService -->
<g id="node4" class="node">
<title>JobsService</title>
<ellipse fill="#fdb462" stroke="black" cx="204" cy="-66.8" rx="57.32" ry="18"/>
<text text-anchor="middle" x="204" y="-62.6" font-family="Times,serif" font-size="14.00">JobsService</text>
</g>
<!-- JobsService&#45;&gt;JobsModule -->
<g id="edge3" class="edge">
<title>JobsService&#45;&gt;JobsModule</title>
<path fill="none" stroke="black" d="M204,-84.81C204,-84.81 204,-114.65 204,-114.65"/>
<polygon fill="black" stroke="black" points="200.5,-114.65 204,-124.65 207.5,-114.65 200.5,-114.65"/>
</g>
</g>
</svg>
